sfk_cyclingleg_x_-0.09_y_-0.06_states
version=1
nRows=13
nColumns=53
inDegrees=yes

# SIMM Motion File Header:
name sfk_cyclingleg_x_-0.09_y_-0.06_states
datacolumns 53
datarows 13
otherdata 1
range 0.86145323 0.86401014
endheader
time	/jointset/bb/crank_angle/value	/jointset/bb/crank_angle/speed	/jointset/spindle/pedal_angle_r/value	/jointset/spindle/pedal_angle_r/speed	/jointset/ground_pelvis/pelvis_tilt/value	/jointset/ground_pelvis/pelvis_tilt/speed	/jointset/ground_pelvis/pelvis_list/value	/jointset/ground_pelvis/pelvis_list/speed	/jointset/ground_pelvis/pelvis_rotation/value	/jointset/ground_pelvis/pelvis_rotation/speed	/jointset/ground_pelvis/pelvis_tx/value	/jointset/ground_pelvis/pelvis_tx/speed	/jointset/ground_pelvis/pelvis_ty/value	/jointset/ground_pelvis/pelvis_ty/speed	/jointset/ground_pelvis/pelvis_tz/value	/jointset/ground_pelvis/pelvis_tz/speed	/jointset/hip_r/hip_angle_r/value	/jointset/hip_r/hip_angle_r/speed	/jointset/hip_r/hip_adduction_r/value	/jointset/hip_r/hip_adduction_r/speed	/jointset/hip_r/hip_rotation_r/value	/jointset/hip_r/hip_rotation_r/speed	/jointset/knee_r/knee_angle_r/value	/jointset/knee_r/knee_angle_r/speed	/jointset/knee_r/tib_tx_r/value	/jointset/knee_r/tib_tx_r/speed	/jointset/knee_r/tib_ty_r/value	/jointset/knee_r/tib_ty_r/speed	/jointset/tib_pat_r/pat_angle_r/value	/jointset/tib_pat_r/pat_angle_r/speed	/jointset/tib_pat_r/pat_tx_r/value	/jointset/tib_pat_r/pat_tx_r/speed	/jointset/tib_pat_r/pat_ty_r/value	/jointset/tib_pat_r/pat_ty_r/speed	/jointset/ankle_r/ankle_angle_r/value	/jointset/ankle_r/ankle_angle_r/speed	/jointset/subtalar_r/subtalar_angle_r/value	/jointset/subtalar_r/subtalar_angle_r/speed	/jointset/mtp_r/mtp_angle_r/value	/jointset/mtp_r/mtp_angle_r/speed	/forceset/bifemlh_r/activation	/forceset/bifemlh_r/fiber_length	/forceset/bifemsh_r/activation	/forceset/bifemsh_r/fiber_length	/forceset/glut_max2_r/activation	/forceset/glut_max2_r/fiber_length	/forceset/vas_int_r/activation	/forceset/vas_int_r/fiber_length	/forceset/med_gas_r/activation	/forceset/med_gas_r/fiber_length	/forceset/tib_ant_r/activation	/forceset/tib_ant_r/fiber_length
      0.86145323	   -423.75185326	   -480.13863232	    429.42482925	    564.41740977	      0.00000000	     -0.00000000	      0.00000000	     -0.00000000	      0.00000000	      0.00000000	     -0.09000000	     -0.00000000	     -0.05623795	     -0.00000000	     -0.00000000	      0.00000000	     75.79307092	   -153.59822019	      4.27838071	      1.80316602	     -1.76589481	     21.40715196	    -92.50332242	    269.01547207	      0.00346398	      0.04128008	     -0.48680450	      0.09332810	     17.57581193	     -1.02436064	      0.03179093	      0.10536384	     -0.02279842	      0.01138519	     22.91525133	    -32.53762513	      0.00000000	     -0.00000000	     -0.00000000	     -0.00000000	     -0.08546998	      0.13859134	     -0.08546998	      0.15070045	     -0.08546998	      0.15307301	     -0.08546998	      0.14965543	     -0.08546998	      0.13494282	     -0.08546998	      0.11572774
      0.86181347	   -423.92482036	   -480.13863232	    429.62813951	    564.31883354	      0.00000000	     -0.00000000	      0.00000000	     -0.00000000	      0.00000000	      0.00000000	     -0.09000000	     -0.00000000	     -0.05623795	     -0.00000000	     -0.00000000	      0.00000000	     75.73766381	   -154.01026871	      4.27902954	      1.79899746	     -1.75818289	     21.40777351	    -92.40638014	    269.18760704	      0.00347882	      0.04111331	     -0.48677087	      0.09338928	     17.57544344	     -1.02142111	      0.03182888	      0.10533311	     -0.02279433	      0.01133653	     22.90355573	    -32.39389827	      0.00000000	     -0.00000000	     -0.00000000	     -0.00000000	     -0.08551636	      0.13857661	     -0.08551636	      0.15073501	     -0.08551636	      0.15304818	     -0.08551636	      0.14960302	     -0.08551636	      0.13504967	     -0.08551636	      0.11573813
      0.86186295	   -423.94857697	   -480.13863232	    429.65606091	    564.30531765	      0.00000000	     -0.00000000	      0.00000000	     -0.00000000	      0.00000000	      0.00000000	     -0.09000000	     -0.00000000	     -0.05623795	     -0.00000000	     -0.00000000	      0.00000000	     75.73004219	   -154.06674641	      4.27911853	      1.79842312	     -1.75712367	     21.40785552	    -92.39306052	    269.21114230	      0.00348085	      0.04109037	     -0.48676625	      0.09339763	     17.57539291	     -1.02101168	      0.03183409	      0.10532884	     -0.02279377	      0.01132982	     22.90195341	    -32.37414301	      0.00000000	     -0.00000000	     -0.00000000	     -0.00000000	     -0.08552273	      0.13857458	     -0.08552273	      0.15073977	     -0.08552273	      0.15304476	     -0.08552273	      0.14959582	     -0.08552273	      0.13502512	     -0.08552273	      0.11573955
      0.86199543	   -424.01218300	   -480.13863232	    429.73081447	    564.26915784	      0.00000000	     -0.00000000	      0.00000000	     -0.00000000	      0.00000000	      0.00000000	     -0.09000000	     -0.00000000	     -0.05623795	     -0.00000000	     -0.00000000	      0.00000000	     75.70962230	   -154.21782188	      4.27935668	      1.79688326	     -1.75428766	     21.40807113	    -92.35739279	    269.27402841	      0.00348629	      0.04102892	     -0.48675388	      0.09341992	     17.57525772	     -1.01990867	      0.03184805	      0.10531736	     -0.02279227	      0.01131184	     22.89766817	    -32.32123282	      0.00000000	     -0.00000000	     -0.00000000	     -0.00000000	     -0.08553979	      0.13856915	     -0.08553979	      0.15075251	     -0.08553979	      0.15303560	     -0.08553979	      0.14957652	     -0.08553979	      0.13501620	     -0.08553979	      0.11574336
      0.86234486	   -424.17996202	   -480.13863232	    429.92797531	    564.17396878	      0.00000000	     -0.00000000	      0.00000000	     -0.00000000	      0.00000000	      0.00000000	     -0.09000000	     -0.00000000	     -0.05623795	     -0.00000000	     -0.00000000	      0.00000000	     75.65566312	   -154.61536156	      4.27998387	      1.79280658	     -1.74680676	     21.40861230	    -92.26326916	    269.43901957	      0.00350060	      0.04086654	     -0.48672122	      0.09347829	     17.57490184	     -1.01695173	      0.03188484	      0.10528667	     -0.02278832	      0.01126423	     22.88639829	    -32.18154625	      0.00000000	     -0.00000000	     -0.00000000	     -0.00000000	     -0.08558478	      0.13855480	     -0.08558478	      0.15078620	     -0.08558478	      0.15301137	     -0.08558478	      0.14952558	     -0.08558478	      0.13501848	     -0.08558478	      0.11575338
      0.86248086	   -424.24526046	   -480.13863232	    430.00469997	    564.13699720	      0.00000000	     -0.00000000	      0.00000000	     -0.00000000	      0.00000000	      0.00000000	     -0.09000000	     -0.00000000	     -0.05623795	     -0.00000000	     -0.00000000	      0.00000000	     75.63462507	   -154.76970299	      4.28022758	      1.79121416	     -1.74389519	     21.40881218	    -92.22662134	    269.50288463	      0.00350616	      0.04080324	     -0.48670851	      0.09350083	     17.57476362	     -1.01578229	      0.03189916	      0.10527457	     -0.02278679	      0.01124563	     22.88202532	    -32.12713414	      0.00000000	     -0.00000000	     -0.00000000	     -0.00000000	     -0.08560229	      0.13854920	     -0.08560229	      0.15079933	     -0.08560229	      0.15300192	     -0.08560229	      0.14950573	     -0.08560229	      0.13502433	     -0.08560229	      0.11575726
      0.86273122	   -424.36546507	   -480.13863232	    430.14592539	    564.06904809	      0.00000000	     -0.00000000	      0.00000000	     -0.00000000	      0.00000000	      0.00000000	     -0.09000000	     -0.00000000	     -0.05623795	     -0.00000000	     -0.00000000	      0.00000000	     75.59584235	   -155.05326820	      4.28067565	      1.78827431	     -1.73853536	     21.40916452	    -92.15913556	    269.61994041	      0.00351636	      0.04068657	     -0.48668509	      0.09354207	     17.57450958	     -1.01360220	      0.03192551	      0.10525208	     -0.02278398	      0.01121128	     22.87399471	    -32.02690125	      0.00000000	     -0.00000000	     -0.00000000	     -0.00000000	     -0.08563452	      0.13853887	     -0.08563452	      0.15082356	     -0.08563452	      0.15298448	     -0.08563452	      0.14946917	     -0.08563452	      0.13504203	     -0.08563452	      0.11576440
      0.86308655	   -424.53607532	   -480.13863232	    430.34634199	    563.97284963	      0.00000000	     -0.00000000	      0.00000000	     -0.00000000	      0.00000000	      0.00000000	     -0.09000000	     -0.00000000	     -0.05623795	     -0.00000000	     -0.00000000	      0.00000000	     75.54067510	   -155.45450834	      4.28131034	      1.78408294	     -1.73092785	     21.40963013	    -92.06330070	    269.78494657	      0.00353078	      0.04052062	     -0.48665184	      0.09360005	     17.57414997	     -1.01044705	      0.03196291	      0.10521965	     -0.02278001	      0.01116229	     22.86263972	    -31.88448658	      0.00000000	     -0.00000000	     -0.00000000	     -0.00000000	     -0.08568027	      0.13852418	     -0.08568027	      0.15085803	     -0.08568027	      0.15295964	     -0.08568027	      0.14941722	     -0.08568027	      0.13514903	     -0.08568027	      0.11577449
      0.86313689	   -424.56024549	   -480.13863232	    430.37473203	    563.95924437	      0.00000000	     -0.00000000	      0.00000000	     -0.00000000	      0.00000000	      0.00000000	     -0.09000000	     -0.00000000	     -0.05623795	     -0.00000000	     -0.00000000	      0.00000000	     75.53284810	   -155.51123459	      4.28140014	      1.78348739	     -1.72985008	     21.40969285	    -92.04971914	    269.80821516	      0.00353282	      0.04049708	     -0.48664713	      0.09360821	     17.57409912	     -1.00999427	      0.03196821	      0.10521501	     -0.02277944	      0.01115533	     22.86103516	    -31.86429664	      0.00000000	     -0.00000000	     -0.00000000	     -0.00000000	     -0.08568675	      0.13852210	     -0.08568675	      0.15086292	     -0.08568675	      0.15295612	     -0.08568675	      0.14940986	     -0.08568675	      0.13512397	     -0.08568675	      0.11577591
      0.86326781	   -424.62310255	   -480.13863232	    430.44856010	    563.92388919	      0.00000000	     -0.00000000	      0.00000000	     -0.00000000	      0.00000000	      0.00000000	     -0.09000000	     -0.00000000	     -0.05623795	     -0.00000000	     -0.00000000	      0.00000000	     75.51247979	   -155.65862125	      4.28163352	      1.78193653	     -1.72704724	     21.40985219	    -92.01439341	    269.86860254	      0.00353812	      0.04043583	     -0.48663488	      0.09362936	     17.57396697	     -1.00881007	      0.03198198	      0.10520289	     -0.02277799	      0.01113720	     22.85686710	    -31.81177415	      0.00000000	     -0.00000000	     -0.00000000	     -0.00000000	     -0.08570361	      0.13851667	     -0.08570361	      0.15087566	     -0.08570361	      0.15294694	     -0.08570361	      0.14939070	     -0.08570361	      0.13511524	     -0.08570361	      0.11577962
      0.86361856	   -424.79151411	   -480.13863232	    430.64634326	    563.82935270	      0.00000000	     -0.00000000	      0.00000000	     -0.00000000	      0.00000000	      0.00000000	     -0.09000000	     -0.00000000	     -0.05623795	     -0.00000000	     -0.00000000	      0.00000000	     75.45781245	   -156.05254331	      4.28225781	      1.77776678	     -1.71953753	     21.41025252	    -91.91970709	    270.02950699	      0.00355228	      0.04027144	     -0.48660203	      0.09368561	     17.57361369	     -1.00558929	      0.03201887	      0.10517002	     -0.02277409	      0.01108844	     22.84573363	    -31.67093559	      0.00000000	     -0.00000000	     -0.00000000	     -0.00000000	     -0.08574877	      0.13850210	     -0.08574877	      0.15090984	     -0.08574877	      0.15292228	     -0.08574877	      0.14933931	     -0.08574877	      0.13511782	     -0.08574877	      0.11578951
      0.86375768	   -424.85831047	   -480.13863232	    430.72477998	    563.79193344	      0.00000000	     -0.00000000	      0.00000000	     -0.00000000	      0.00000000	      0.00000000	     -0.09000000	     -0.00000000	     -0.05623795	     -0.00000000	     -0.00000000	      0.00000000	     75.43609175	   -156.20839257	      4.28250502	      1.77610710	     -1.71655895	     21.41040065	    -91.88213646	    270.09296688	      0.00355787	      0.04020614	     -0.48658899	      0.09370774	     17.57347388	     -1.00429249	      0.03203350	      0.10515682	     -0.02277255	      0.01106903	     22.84133149	    -31.61502884	      0.00000000	     -0.00000000	     -0.00000000	     -0.00000000	     -0.08576668	      0.13849631	     -0.08576668	      0.15092343	     -0.08576668	      0.15291248	     -0.08576668	      0.14931891	     -0.08576668	      0.13512399	     -0.08576668	      0.11579342
      0.86401014	   -424.97952473	   -480.13863232	    430.86710453	    563.72413965	      0.00000000	     -0.00000000	      0.00000000	     -0.00000000	      0.00000000	      0.00000000	     -0.09000000	     -0.00000000	     -0.05623795	     -0.00000000	     -0.00000000	      0.00000000	     75.39662023	   -156.49064343	      4.28295303	      1.77308686	     -1.71115371	     21.41065413	    -91.81393517	    270.20760599	      0.00356801	      0.04008748	     -0.48656533	      0.09374763	     17.57322064	     -1.00191107	      0.03206005	      0.10513265	     -0.02276976	      0.01103370	     22.83336287	    -31.51350882	      0.00000000	     -0.00000000	     -0.00000000	     -0.00000000	     -0.08579918	      0.13848578	     -0.08579918	      0.15094812	     -0.08579918	      0.15289464	     -0.08579918	      0.14928186	     -0.08579918	      0.13514217	     -0.08579918	      0.11580051
